<svg version="1" xmlns="http://www.w3.org/2000/svg" width="840" height="840" viewBox="0 0 630.000000 630.000000"><path d="M551 1c-7 1.1-14.3 3.5-20 6.8-2.8 1.6-44.7 42.6-113.7 111.5l-109.1 109-6.1-1.7c-7.2-2-12.2-1.1-17.2 3.1-1.8 1.5-15.2 18.7-29.9 38.3l-26.7 35.5-94.4 32.4C82 353.7 37.9 369.1 36 370c-14 7-22.7 24.8-19.9 40.4 2 11 4.6 14.5 28.3 38.5 22.1 22.3 26.8 26 32.9 26.1 1.6 0 9.1-2.1 16.8-4.6 7.8-2.5 14.3-4.4 14.5-4.2.2.3-1.6 6.5-4.1 13.8-5 14.8-5.4 19.3-2.6 24.8 1.1 2 21 22.7 44.3 45.9 45.3 45.1 46.8 46.3 58.4 48.1 16 2.6 33.1-5.7 40.1-19.3.9-1.6 16.3-45.7 34.3-98l32.6-95L348 359c20-15.1 37.2-28.7 38.3-30.1 3.2-4.4 3.8-9.7 2-16.2l-1.6-5.9 108.5-108.6C554.9 138.4 605 87.6 606.4 85.3c10.6-17.2 10.5-40.2 0-58C595.3 8.7 572.4-2.2 551 1zm15.3 38.4c9.1 3.9 13.2 14.7 9.2 24.4-1.1 2.6-32.9 35-108.3 110.4L360.5 281l-13.2-13.2-13.3-13.3 105.2-105.3c57.9-58 107.3-106.7 109.7-108.3 5.1-3.3 11.9-3.9 17.4-1.5zM320.4 294.9l21.9 21.9-22 16.5-22 16.5-16.6-16.5-16.5-16.6 16.4-21.9c9-12 16.5-21.8 16.7-21.8.1 0 10.1 9.8 22.1 21.9zm-65.7 65.3l20.2 20.3-31.1 90c-17 49.5-31 90.6-31.1 91.2 0 .7-.5 1.3-1.1 1.3-.6 0-17.1-16-36.7-35.6l-35.6-35.6 9-27.4c8.9-26.8 9.1-27.5 7.9-32-.7-2.5-2.2-5.8-3.4-7.5-2.7-3.6-9.3-6.9-13.8-6.9-1.9 0-15.3 3.9-29.7 8.7L83 435.5l-15-15c-8.3-8.2-15-15.7-15-16.5 0-1.1 24.2-9.8 90.3-32.6 49.6-17.2 90.4-31.2 90.7-31.3.3-.1 9.6 9 20.7 20.1z"/><path d="M199 8.3c-5.3 1.6-24.4 21-25.9 26.2-1.7 6.2-1.4 39.8.3 44l1.5 3.5h-5.2c-6.8.1-12.1 2.6-18.1 8.8l-4.9 5.1-6.1-5.6c-8.8-8.1-9.5-8.3-31.8-8.3-16.6 0-19.9.3-23.3 1.9-2.3 1-8.3 6.3-14.1 12.3C61.8 106 61.1 107 60 112.5c-.8 3.8-1.1 11.7-.8 22.4.5 18.9.7 19.5 8.9 28.5l5.1 5.6-6 6.5c-7.8 8.3-8.6 11.7-8 34.4.3 12.8.8 17.3 2 19.6 1.9 3.5 21.2 22.7 24.5 24.4 2.8 1.4 42.1 1.5 45.8.1 1.5-.6 5.3-3.6 8.6-6.7l6-5.7 4.2 4.1c2.3 2.3 6 5.3 8.1 6.7 3.9 2.6 4 2.6 24.7 2.6 12 0 21.9-.4 23.5-1 4.1-1.6 22.3-19.8 24.5-24.5 1.6-3.4 1.9-6.6 1.9-22.5 0-10.2-.5-20.1-1-22.1-.6-2.1-3.5-6.4-7-10.1l-5.9-6.5 5.1-4.9c8.3-8 8.8-9.8 8.7-31.9 0-13.3-.4-20.1-1.3-22.8l-1.4-3.7h6c3.5 0 7.2-.7 9.1-1.6 4.4-2.3 18.3-15.9 21.8-21.3l2.9-4.5V56.7c0-16.8-.3-21.5-1.5-24.2-.9-1.7-6.2-7.7-11.8-13.2-7.6-7.5-11.2-10.4-14.2-11.2-5.1-1.4-38.8-1.3-43.5.2zm31.8 31.1c1.7.9 4.3 3.2 5.9 5.2 2.2 3 2.8 4.9 3.1 10.5.4 5.9.1 7.4-2.1 11.1-3.8 6.5-9.1 9.1-17.6 8.6-5.6-.3-7.5-.9-10.6-3.2-11.6-8.9-8.9-28.8 4.6-33.4 4.3-1.4 12.8-.8 16.7 1.2zm-114.2 74.1c2 .8 9.5 7.3 16.8 14.5l13.2 12.9 12.9-12.9c14.5-14.5 18-16.6 26.5-15.8 9 .9 15.6 7.5 16.7 16.6 1 8.6-1 12-15.6 26.6l-13 13 13.4 13.7c13.9 14.2 15.5 16.8 15.5 24.9-.1 5.1-3.2 11.3-7.5 14.6-4.9 3.7-15.2 4.6-20.6 1.9-1.9-1-9.1-7.4-16.2-14.3L146 196.6l-13.3 13.2c-7.3 7.2-14.5 13.6-16 14.1-4 1.6-13.3 1.3-16.6-.3-3.8-2-8.9-8-9.6-11.4-.4-1.5-.8-3.5-1-4.4-.1-.9.2-3.8.7-6.5 1-4.3 2.4-6.2 14.6-18.5l13.5-13.8-12.5-12.7c-13.3-13.6-14.7-15.6-15.9-21.6-2.7-15 12.5-27.1 26.7-21.2zM479.5 383.9c-2.2 1-8.5 6.4-14.1 12.2-10.3 10.5-12.4 14.1-12.4 21.1 0 2.6-.3 2.8-4.5 2.8-2.6 0-5.8.6-7.3 1.4-4 2.1-22.9 21.7-24.1 24.9-.7 1.6-1.1 11.3-1.1 22.8 0 24.1-.2 23.4 13.3 36.6 9.8 9.6 14.2 12.3 20.2 12.3 3.1 0 3.5.3 3.5 2.6 0 6.7 2.4 10.8 12 20.8 13.5 13.9 12.6 13.6 37.5 13.6s24 .3 37.5-13.6c9.6-10 12-14.1 12-20.8 0-2.3.4-2.6 3.7-2.6 2 0 5.5-.9 7.8-2 5.2-2.5 22-19.5 24-24.3 1.8-4.4 2.2-40.7.4-45.4-1.2-3.2-20.1-22.8-24.1-24.9-1.5-.8-4.7-1.4-7.3-1.4-4.2 0-4.5-.2-4.5-2.8 0-7-2.1-10.6-12.4-21.1-5.6-5.8-11.9-11.2-14.1-12.2-3.5-1.6-6.6-1.9-23-1.9s-19.5.3-23 1.9zm31 30c5 2.2 9.1 6.9 10.5 11.9.5 2 1 8.3 1 13.9V450h12c13.5 0 15.8.7 20.8 6.4 7.7 8.8 4.5 24.4-6 29.5-3.7 1.8-6.3 2.1-15.6 2.1H522v10.4c0 14.6-2.5 20.8-10 24.6-5.2 2.7-13.8 2.7-19 0-7.5-3.8-10-10-10-24.6v-10.2l-12.3-.4c-11.5-.3-12.6-.5-16.5-3.1-5.3-3.4-8.2-9.1-8.2-15.6 0-6.1 1.3-9.7 4.8-13.4 4.7-5 7.1-5.7 20.2-5.7h12v-10.3c0-5.6.5-11.9 1-13.9 2.2-7.8 10.3-13.8 18.5-13.8 2.2 0 5.8.9 8 1.9zM330.5 458.5c-5.9 2.1-24.9 21.6-26.4 27-1.5 5.5-1.4 36.7.1 41.9 1.5 4.9 18.1 22.7 24 25.7 3.3 1.7 6.1 1.9 24.3 1.9 18.2 0 21-.2 24.3-1.9 5.9-3 22.5-20.8 24-25.7 1.5-5.2 1.6-36.4.1-41.9-1.6-5.7-21.7-25.8-27.4-27.4-6.1-1.6-38.1-1.3-43 .4zm28 29.6c7.2 2 13.5 10.6 13.5 18.5 0 6.2-4.5 13.6-10 16.4-8 4.1-20.2 1.8-24.8-4.7-5.7-8.3-5.3-18 1.1-24.9 5.1-5.6 12.3-7.5 20.2-5.3zM405.5 533.5c-5.9 2.1-24.9 21.6-26.4 27-1.5 5.5-1.4 36.7.1 41.9 1.5 4.9 18.1 22.7 24 25.7 3.3 1.7 6.1 1.9 24.3 1.9 18.2 0 21-.2 24.3-1.9 5.9-3 22.5-20.8 24-25.7 1.5-5.2 1.6-36.4.1-41.9-1.6-5.7-21.7-25.8-27.4-27.4-6.1-1.6-38.1-1.3-43 .4zm28 29.6c7.2 2 13.5 10.6 13.5 18.5 0 3-2 8.4-4.2 11.7-6.3 8.9-24.3 8.9-30.6 0-5.7-8.3-5.3-18 1.1-24.9 5.1-5.6 12.3-7.5 20.2-5.3z"/></svg>